<?xml version="1.0" encoding="UTF-8" standalone="no"?>
<!-- Created with Inkscape (http://www.inkscape.org/) -->

<svg
   width="128"
   height="128"
   viewBox="0 0 76.211888 76.211891"
   version="1.1"
   id="logo"
   xml:space="preserve"
   xmlns="http://www.w3.org/2000/svg"
   xmlns:svg="http://www.w3.org/2000/svg"><defs
     id="defs1" /><g
     id="layer1"
     transform="translate(-40.83138,-186.14234)"><g
       id="g3"
       transform="translate(-3.0649538,96.528304)"><path
         style="color:#000000;fill:#092c75;fill-opacity:1;-inkscape-stroke:none"
         d="m 74.091797,101.57227 c -7.000873,-0.5264 -12.416875,1.11814 -16.201172,4.46093 -3.784297,3.3428 -6.131122,7.45872 -6.952436,13.12665 -1.52806,10.54524 -1.572589,23.82081 -3.440142,34.01463 l 4.922526,-0.004 c 1.65828,-11.03348 2.661804,-22.82669 3.659505,-32.6862 0.596876,-5.89847 2.711435,-8.18505 5.314453,-10.48438 2.603019,-2.29933 5.250081,-3.80054 12.300781,-3.15039 2.336655,1.12155 4.463434,1.94485 5.895527,4.40916 1.105746,1.90275 3.076688,7.31441 4.320313,11.5967 1.243625,4.28229 3.442493,12.12036 3.92804,13.31836 0.859279,2.12011 1.497957,3.45527 2.847657,4.6914 1.3497,1.23613 2.746654,1.22781 4.719401,1.30274 1.580375,0.06 2.967978,-0.87742 3.767578,-1.86524 0.7996,-0.98781 1.297772,-2.10865 1.742192,-3.39062 0.88882,-2.56394 0.79801,-5.82947 1.25187,-9.60938 0.89989,-7.49455 2.15785,-17.18454 2.71429,-25.39843 l -5.167299,-0.005 c -0.37957,8.32938 -1.765739,16.83397 -2.325583,24.67803 -0.258195,3.61761 -0.926517,7.75827 -1.471329,9.39357 -0.544812,1.63529 -0.286151,1.34333 -0.703125,1.4707 -0.416974,0.12737 -0.84961,-0.5 -0.84961,-0.5 -0.718671,-0.42295 -1.481139,-2.44213 -1.876953,-3.99284 -0.915497,-3.58671 -1.989515,-6.43158 -3.671875,-11.57031 -1.416727,-4.32736 -2.672479,-8.87561 -4.824219,-12.59375 -2.151739,-3.71814 -5.396023,-6.87421 -9.90039,-7.21289 z"
         id="path1" /><path
         style="color:#000000;fill:#109cf8;fill-opacity:1;-inkscape-stroke:none"
         d="m 111.67839,101.83464 c -1.44268,9.16853 -2.28922,20.47713 -3.08855,30.3763 -0.38666,4.78853 -2.10956,8.76342 -4.34179,11.50781 -2.53029,3.11082 -6.61878,5.02046 -10.515591,5.11568 -2.995914,0.0732 -6.043832,-0.70049 -8.266964,-3.53342 -2.112159,-2.69151 -3.332907,-6.98695 -4.832683,-11.52734 -1.499775,-4.54039 -2.729991,-9.3007 -4.08789,-13.1543 -0.67895,-1.9268 -1.373213,-3.62712 -2.289063,-5.06836 -0.915849,-1.44124 -2.210924,-2.87992 -4.259765,-3.15039 l -0.220703,-0.0293 -0.222657,0.008 c -1.568998,0.058 -3.078958,0.76048 -4.140625,1.78125 -1.061666,1.02077 -1.758302,2.28047 -2.304687,3.66406 -1.092771,2.76717 -1.023139,6.21774 -1.406838,10.0726 -0.767398,7.70972 -1.453698,17.28407 -2.567772,25.51384 l 4.94756,0.12126 c 3.166936,-19.96346 2.318389,-35.41576 4.469375,-35.67558 2.150986,-0.25981 1.638315,0.40985 3.00494,4.52211 1.366625,4.11226 2.480335,8.29443 4.052735,13.05468 1.5724,4.76025 2.725714,9.3902 5.570237,13.01497 2.833559,3.61079 8.56053,6.27882 13.629633,5.31836 6.351188,-0.36456 10.461518,-2.91588 13.546228,-6.70833 3.14126,-3.86197 4.91015,-8.7573 5.45898,-13.99609 1.11542,-10.64705 1.88,-23.47555 2.69401,-31.07097 z"
         id="path2" /></g></g></svg>
